<?xml version="1.0" encoding="UTF-8"?>
<!DOCTYPE svg PUBLIC "-//W3C//DTD SVG 1.1//EN" "http://www.w3.org/Graphics/SVG/1.1/DTD/svg11.dtd">
<!-- Creator: CorelDRAW 2019 (64-Bit) -->
<svg xmlns="http://www.w3.org/2000/svg" xml:space="preserve" width="72.4657mm" height="30.566mm" version="1.1" style="shape-rendering:geometricPrecision; text-rendering:geometricPrecision; image-rendering:optimizeQuality; fill-rule:evenodd; clip-rule:evenodd"
viewBox="0 0 198551.03 83748.74"
 xmlns:xlink="http://www.w3.org/1999/xlink">
 <defs>
  <style type="text/css">
   <![CDATA[
    .fil0 {fill:black;fill-rule:nonzero}
    .fil1 {fill:#CF413D;fill-rule:nonzero}
   ]]>
  </style>
 </defs>
 <g id="Capa_x0020_1">
  <metadata id="CorelCorpID_0Corel-Layer"/>
  <path class="fil0" d="M89476.84 3307.37c3148.73,-2992.55 7904.15,-3966.32 12062.55,-2871.72 4961.19,1251.05 8913.54,6176.9 8494.06,11380.03 -21.1,3632.33 -2559.1,6653.1 -5551.37,8415.97 1997.41,952.4 4072.91,2004.53 5402.32,3852.62 3589.31,4741.18 2779.11,11906.1 -1208.58,16163.95 -5459.04,6155.53 -16689.74,6290.61 -21764.92,-419.48 -2047.28,-2537.45 -2729.79,-5807.28 -3113.38,-8970.53 2544.57,0 5082.3,0 7626.87,7.4 632.65,2701.02 1983.16,5793.04 5032.71,6361.57 4193.74,1322.29 8821.21,-2658.56 7946.62,-7015.59 -597.03,-4392.93 -5480.14,-6176.9 -9382.62,-6120.18 7.12,-2274.69 0,-4542.26 0,-6816.67 2615.81,-341.12 5821.53,-952.4 6866.54,-3760.28 1265.3,-2658.28 -980.9,-5970.86 -3916.73,-5736.32 -2459.36,-156.18 -4115.65,1897.95 -5252.72,3788.78 -2437.99,-14.25 -4876.26,-7.12 -7314.25,-35.62 654.02,-3013.65 1656.29,-6148.41 4072.91,-8223.9z"/>
  <path class="fil0" d="M5444.52 52161.44c4080.31,-2296.06 9489.48,-2217.7 13470.05,263.03 2615.81,1634.64 3639.45,4719.53 4122.77,7605.5 -1243.93,156.45 -2487.86,320.02 -3724.66,483.32 -504.97,-2388.12 -1556.83,-5110.79 -4194.01,-5778.79 -2836.1,-668.27 -6382.94,-824.45 -8650.51,1329.14 -1883.43,1770 -1642.04,5388.07 803.35,6532.54 4577.6,2288.66 10420.51,1940.42 14244.63,5693.58 4215.11,4264.7 2160.98,12297.09 -3369.29,14386.56 -4840.64,1862.61 -11188.24,1450.25 -14955.37,-2437.99 -1905.07,-1961.79 -2551.97,-4698.43 -2928.44,-7314.25 1208.31,-149.33 2430.87,-284.13 3646.3,-405.24 526.07,2018.78 995.14,4336.22 2850.35,5601.24 3219.97,2317.43 8011.01,2559.1 11323.31,298.65 2473.61,-1720.13 2701.02,-5842.9 106.58,-7563.03 -4371.56,-2687.05 -10129.25,-2253.32 -14159.42,-5622.34 -3980.57,-3412.04 -3070.64,-10520.24 1414.35,-13071.94z"/>
  <path class="fil0" d="M37217.86 51159.17c1407.5,-7.12 2821.86,0 4243.61,-7.12 4008.79,10690.66 8024.98,21374.2 12041.18,32057.47 -1492.71,-6.85 -2985.43,-6.85 -4471.02,-13.97 -1101.73,-3276.96 -2224.82,-6546.79 -3426.01,-9781.01 -4122.77,35.62 -8245.55,0 -12368.32,28.5 -1037.61,3276.68 -2110.84,6539.39 -3227.09,9794.98 -1343.39,-28.5 -2679.65,-42.47 -4015.92,-49.87 3703.29,-10690.66 7498.92,-21345.43 11223.58,-32028.97zm-2864.6 18921.69l0 0c3369.57,0 6745.71,64.11 10122.13,-113.71 -1833.84,-5132.17 -3760.28,-10235.56 -5160.39,-15502.8 -1244.2,5323.96 -3205.72,10441.88 -4961.74,15616.51z"/>
  <path class="fil0" d="M56466.69 51173.42c4485.27,42.47 8991.91,-163.57 13477.17,92.34 3496.97,220.29 6560.49,2921.31 7143.55,6390.07 831.57,3305.45 -952.4,6646.25 -3667.67,8487.21 4861.73,1641.77 6581.86,7698.11 4357.04,12055.42 -1186.94,3063.52 -4442.52,4655.69 -7570.16,4861.73 -4570.48,312.9 -9155.21,56.99 -13732.81,142.48 7.12,-10676.42 21.37,-21353.11 -7.12,-32029.25zm3866.86 3681.92l0 0c-7.12,3269.83 0,6546.52 0,9823.48 3418.89,-56.99 6930.38,355.37 10285.43,-504.7 4009.07,-1123.1 3753.16,-8089.1 -298.38,-8934.92 -3291.21,-639.77 -6660.5,-327.15 -9987.05,-383.86zm0 13484.02l0 0c0,3689.04 -7.12,7385.48 0,11081.65 3689.04,-170.7 7484.94,447.7 11102.75,-440.58 4400.06,-1350.79 4364.44,-8863.95 -113.43,-10086.51 -3582.73,-938.43 -7328.77,-447.98 -10989.32,-554.56z"/>
  <path class="fil0" d="M92575.97 51223.01c4918.72,-1670.26 10790.12,-362.49 14315.87,3511.5 3056.39,3347.92 4257.58,8018.13 4229.08,12467.78 14.52,4456.77 -1222.56,9140.96 -4321.69,12453.26 -4484.99,4755.42 -12552.72,5451.92 -17756.12,1485.59 -4698.16,-3468.75 -6432.81,-9709.77 -6020.45,-15325.26 78.09,-6112.79 3433.13,-12659.3 9553.32,-14592.87zm1961.79 3276.96l0 0c-3696.17,902.53 -6461.31,4186.61 -7101.08,7882.78 -909.66,4961.47 -938.15,10853.96 2744.04,14770.7 3191.2,3596.71 9233.02,3952.08 12858.22,817.32 2928.71,-2416.62 3980.85,-6347.32 4108.8,-10001.02 78.09,-3681.92 -554.56,-7648.24 -2971.18,-10562.43 -2288.94,-2744.04 -6219.64,-3874.26 -9638.8,-2907.34z"/>
  <path class="fil0" d="M116160.75 51180.27c4606.1,-35.35 9212.2,-21.1 13818.02,-28.22 2573.34,28.22 5487.53,291.53 7385.48,2239.07 3141.61,3404.64 3333.67,9382.62 -64.11,12680.68 -1442.85,1436 -3475.88,1919.32 -5338.21,2523.48 4819.54,3710.41 7015.87,9596.06 10150.35,14614.24 -1606.42,-6.85 -3205.72,0 -4805.02,0 -2039.88,-3397.51 -3923.58,-6894.76 -6091.69,-10214.19 -1066.11,-1549.71 -2253.32,-3248.46 -4129.62,-3859.74 -2331.41,-305.78 -4698.71,-113.71 -7037.24,-149.33 -35.62,4748.3 78.36,9496.33 -92.34,14244.63 -1265.3,-21.37 -2530.6,-35.35 -3795.63,-49.59 13.97,-10669.29 28.22,-21338.58 0,-32001.03zm3902.21 3511.77l0 0c-21.1,3518.35 -35.35,7044.09 7.12,10569.56 3532.87,-106.58 7072.58,135.08 10598.33,-163.57 2153.59,-92.34 4335.94,-1442.85 4883.38,-3617.81 995.14,-2772.26 -789.1,-6162.93 -3774.53,-6589.53 -3888.24,-426.33 -7811.82,-63.84 -11714.3,-198.65z"/>
  <path class="fil0" d="M145986.27 51173.42c7101.08,-21.37 14201.89,-21.37 21302.96,0 -6.85,1222.56 -14.25,2445.11 -6.85,3674.8 -5814.68,7.12 -11636.21,0 -17450.62,0 0,3305.18 -28.22,6617.48 64.11,9922.93 5444.79,-63.84 10889.58,-14.25 16341.5,-35.62 -28.5,1251.05 -49.87,2509.23 -64.11,3760.28 -5451.92,-49.87 -10896.43,-14.25 -16341.5,-21.37 0,3646.57 0,7300.27 0,10953.7 6042.1,-14.25 12091.04,21.37 18139.99,-21.37 7.12,1265.3 14.25,2530.33 28.5,3795.9 -7335.62,0 -14671.24,-7.12 -21999.73,0 7.12,-10676.42 21.37,-21353.11 -14.25,-32029.25z"/>
  <path class="fil0" d="M177795.23 51812.92c4748.03,-2224.82 11394.28,-1762.6 14863.03,2509.23 1272.42,1620.94 1670.54,3703.29 2118.24,5665.36 -1258.18,184.67 -2516.35,355.1 -3760.28,518.94 -504.7,-1770 -902.81,-3803.02 -2516.35,-4933.25 -2338.53,-1577.93 -5416.3,-1478.47 -8046.36,-860.06 -2459.36,611.28 -4207.99,3419.16 -3248.46,5864.27 838.97,2295.79 3568.49,2729.52 5622.61,3390.39 3937.83,1151.59 8664.76,1698.76 11237.83,5295.74 3241.34,4641.44 746.63,11771.02 -4577.6,13569.24 -4854.61,1684.78 -11138.37,1187.21 -14763.3,-2793.36 -1777.12,-1947.54 -2381.55,-4584.73 -2694.17,-7122.45 1194.34,-142.2 2395.52,-284.13 3603.83,-412.09 518.94,1940.42 924.18,4143.87 2622.94,5437.67 3170.1,2473.61 8011.01,2750.89 11408.53,582.78 2672.8,-1691.63 2871.72,-6191.15 28.5,-7818.94 -4435.67,-2587.32 -10271.45,-2132.49 -14195.04,-5722.07 -3902.48,-3667.67 -2551.7,-10989.04 2296.06,-13171.4z"/>
  <path class="fil1" d="M63091.57 16279.58c3241.34,-376.74 6482.4,-973.77 9560.44,-2096.87 1073.23,2437.99 2551.7,4862.01 5181.76,5828.66 -2466.49,1201.19 -4137.02,3404.64 -5082.3,5935.24 -4684.19,-1592.17 -9631.68,-2103.99 -14521.91,-2601.56 -18914.57,-1777.12 -37928.87,-2288.94 -56900.7,-2758.01 -334,-184.67 -994.87,-554.29 -1328.87,-746.08 21025.68,-1080.63 42151.1,-1037.89 63091.57,-3561.36z"/>
  <path class="fil1" d="M121619.79 20089.45c2658.28,-980.9 4136.75,-3433.13 5160.39,-5920.99 4662.81,1819.59 9716.89,2111.12 14635.62,2715.27 17450.35,1663.41 34986.18,2118.24 52500.64,2665.41 1542.31,42.74 3091.74,149.33 4634.59,362.49 -519.22,355.64 -1080.63,590.18 -1684.78,696.76 -17393.63,362.49 -34787.26,966.65 -52130.75,2367.03 -6063.47,618.4 -12233.24,1002.27 -18047.65,2971.18 -931.3,-2501.83 -2452.51,-4883.38 -5068.05,-5857.15z"/>
 </g>
</svg>
