<?xml version="1.0" encoding="UTF-8"?>
<!DOCTYPE svg PUBLIC "-//W3C//DTD SVG 1.1//EN" "http://www.w3.org/Graphics/SVG/1.1/DTD/svg11.dtd">
<!-- Creator: CorelDRAW 2019 (64-Bit) -->
<svg xmlns="http://www.w3.org/2000/svg" xml:space="preserve" width="142.286mm" height="70.8383mm" version="1.1" style="shape-rendering:geometricPrecision; text-rendering:geometricPrecision; image-rendering:optimizeQuality; fill-rule:evenodd; clip-rule:evenodd"
viewBox="0 0 14228.66 7083.84"
 xmlns:xlink="http://www.w3.org/1999/xlink">
 <defs>
  <style type="text/css">
   <![CDATA[
    .fil0 {fill:black;fill-rule:nonzero}
    .fil1 {fill:#70C9CE;fill-rule:nonzero}
    .fil2 {fill:#CF413D;fill-rule:nonzero}
   ]]>
  </style>
 </defs>
 <g id="Capa_x0020_1">
  <metadata id="CorelCorpID_0Corel-Layer"/>
  <path class="fil0" d="M1319.03 129.89c203.91,-91.58 428.57,-125.82 650.9,-126.86 1072.21,-7.78 2144.68,2.34 3216.9,-1.3 386.8,21.54 778.54,183.67 1035.37,479.68 144.76,162.15 194.06,383.69 201.58,595.39 -0.78,206.5 17.12,413.78 -3.63,620.03 -18.94,118.04 -110.26,210.65 -220.51,249.57 -0.27,902.02 -1.56,1804.31 0.51,2706.35 62.27,2.33 124.27,4.15 186.79,4.41 84.05,144.24 38.39,358.26 -105.85,449.58 -251.38,172.53 -562.95,223.37 -860.51,250.09 -964.82,11.67 -1929.62,12.45 -2894.44,18.94 -487.72,6.74 -988.67,24.13 -1458.76,-126.34 -119.07,-40.99 -236.34,-95.21 -332.84,-177.19 -103.25,-87.43 -106.88,-238.15 -90.54,-361.9 -1.3,-53.44 60.96,-50.85 96.5,-65.64 -8.56,-527.15 17.64,-1054.82 -5.96,-1581.72 -194.05,-32.17 -395.89,42.29 -585.27,-25.94 -135.94,-58.11 -157.21,-220 -147.09,-349.97 -10.64,-121.41 62.78,-244.9 179.78,-284.07 179,-49.81 363.46,18.42 544.28,-10.9 41.24,-140.61 10.64,-291.34 12.71,-435.83 9.34,-98.84 -94.69,-159.04 -94.69,-255.28 -11.67,-173.3 -7.78,-347.11 -5.19,-520.41 4.41,-155.14 -1.82,-316.76 62.52,-461.78 123.23,-264.35 350.49,-473.97 617.44,-588.9zm-494.73 655.31l0 0c-71.86,156.96 -41.51,334.14 -46.7,500.95 310.54,16.61 622.11,4.67 932.9,9.34 1521.54,-1.55 3042.83,-2.33 4564.11,-0.25 12.71,-132.83 11.93,-267.73 -5.71,-400.04 -79.91,-307.42 -332.58,-549.98 -625.74,-659.47 -301.45,-117.51 -631.7,-87.42 -948.2,-88.98 -968.96,8.3 -1938.44,-1.56 -2907.4,5.19 -394.85,32.43 -808.64,252.17 -963.26,633.26zm-42.29 636.9l0 0c-16.6,122.96 -50.85,302.49 81.21,373.57 79.9,46.7 153.32,123.23 252.67,116.74 596.43,8.56 1193.11,2.08 1789.53,0.26 45.14,2.08 107.14,-4.93 127.38,47.48 5.45,208.06 -1.04,416.38 2.33,624.7 3.64,36.32 -12.97,69.52 -26.97,101.95 -190.16,-1.56 -380.58,-0.52 -570.75,-0.78 -2.85,19.46 -8.03,58.11 -10.89,77.57 177.19,1.04 354.38,-0.52 531.57,0 31.13,-4.93 70.3,19.46 70.3,52.93 6.74,86.38 3.11,173.55 9.08,260.2 327.66,4.67 655.32,4.41 982.97,1.81 12.19,-365.53 -3.11,-731.06 2.85,-1096.34 -6.48,-54.21 56.04,-71.33 98.33,-68.74 562.18,-4.41 1124.61,9.86 1686.79,0.52 68.49,2.59 135.42,-14.27 193.79,-50.33 88.72,-56.04 212.21,-49.03 274.73,-143.72 -0.52,-96.25 0.52,-192.76 -0.77,-289.01 -492.66,-21.53 -986.09,-8.3 -1479,-12.19 -1338.38,-4.15 -2676.77,13.75 -4015.16,3.38zm100.14 550.5l0 0c-2.07,136.71 -0.78,273.44 -0.78,410.15 18.68,-0.26 56.04,-0.78 74.72,-1.04 3.12,-120.89 3.12,-242.04 0,-362.93 -24.65,-15.57 -49.29,-30.88 -73.94,-46.18zm5099.05 95.99l0 0c-1.56,861.82 0,1723.63 -0.52,2585.45 28.79,1.3 57.59,2.6 86.39,3.89 -1.82,-892.68 4.4,-1785.11 -2.08,-2677.55 -31.65,25.16 -92.09,36.58 -83.79,88.21zm-4882.17 -18.68l0 0c-3.37,114.15 -6.48,228.56 -3.11,342.7 378.5,22.05 757.78,-23.87 1136.03,7.27 85.1,7 132.57,87.68 190.68,139.31 160.07,8.82 320.65,2.85 480.71,8.3 1.31,-165.25 2.34,-330.77 -0.77,-496.02 -601.09,-5.72 -1202.44,-19.2 -1803.54,-1.56zm3051.91 9.08l0 0c-1.82,365.27 1.82,730.8 -1.29,1096.07 12.19,60.97 -60.98,66.42 -103.77,68.76 -328.96,3.11 -657.66,-2.08 -986.61,3.11 -52.66,-2.6 -125.04,8.04 -152.54,-50.33 -7.01,-88.73 -0.78,-177.97 -2.34,-266.95 -162.66,-0.52 -325.32,-0.26 -487.98,0 -37.88,53.7 -78.87,111.03 -144.24,132.31 -122.71,39.95 -254.24,20.75 -380.83,24.64 -264.62,3.37 -529.49,-19.45 -793.85,-1.3 -1.56,530.27 3.11,1060.8 2.33,1591.07 1582.51,1.82 3164.76,3.11 4747.26,-1.82 16.61,-759.86 1.56,-1519.72 2.07,-2279.58 3.64,-107.4 9.61,-215.06 -4.66,-321.95 -452.44,-20.24 -905.4,-3.37 -1358.1,-6.74 -111.81,0.78 -226.74,-22.57 -335.44,12.71zm-3854.06 462.56l0 0c-55.51,7.78 -128.15,17.12 -148.38,79.38 -23.35,79.39 -25.95,169.67 1.81,248.53 27.5,74.19 117.78,78.35 184.71,79.64 588.9,-0.51 1178.06,-0.78 1767.22,0.27 59.93,-4.16 143.2,1.81 173.04,-63.05 37.61,-80.68 37.1,-179.78 10.63,-263.57 -39.69,-90.29 -154.1,-86.65 -237.12,-87.43 -583.96,5.7 -1168.45,-7 -1751.91,6.23zm584.49 548.42l0 0c-0.51,528.97 -0.78,1058.2 -0.25,1587.44 18.93,0 56.29,-0.26 74.97,-0.26 5.19,-527.94 1.3,-1055.87 1.3,-1583.8 -18.94,-1.04 -57.07,-2.6 -76.02,-3.38zm-108.69 1735.57l0 0c5.7,57.07 1.55,126.34 54.99,163.18 155.14,124.52 352.56,177.45 543.76,216.88 222.85,46.69 451.4,26.98 677.11,33.46 1116.57,2.08 2233.14,15.31 3349.46,6.49 280.96,-34.76 582.42,-66.15 815.9,-241.79 61.49,-40.46 69.01,-115.7 65.12,-182.89 -1835.45,7 -3670.9,0 -5506.34,4.67z"/>
  <path class="fil0" d="M10247.74 457.29c114.92,-109.22 288.48,-144.76 440.25,-104.81 181.07,45.66 325.32,225.44 310.01,415.34 -0.77,132.57 -93.4,242.82 -202.61,307.16 72.9,34.76 148.65,73.16 197.17,140.61 131,173.04 101.43,434.54 -44.11,589.94 -199.24,224.66 -609.13,229.59 -794.36,-15.31 -74.72,-92.61 -99.63,-211.95 -113.63,-327.4 92.87,0 185.49,0 278.36,0.27 23.09,98.58 72.38,211.43 183.68,232.18 153.06,48.26 321.95,-97.03 290.03,-256.05 -21.79,-160.33 -200.01,-225.44 -342.44,-223.37 0.26,-83.02 0,-165.78 0,-248.79 95.47,-12.45 212.47,-34.76 250.61,-137.24 46.18,-97.02 -35.8,-217.92 -142.95,-209.36 -89.76,-5.7 -150.21,69.27 -191.71,138.28 -88.98,-0.52 -177.97,-0.26 -266.95,-1.3 23.87,-109.99 60.45,-224.4 148.65,-300.15z"/>
  <path class="fil0" d="M7180.79 2240.33c148.92,-83.8 346.34,-80.94 491.62,9.6 95.47,59.66 132.83,172.25 150.47,277.58 -45.4,5.71 -90.8,11.68 -135.94,17.64 -18.43,-87.16 -56.82,-186.53 -153.07,-210.91 -103.51,-24.39 -232.96,-30.09 -315.72,48.51 -68.74,64.6 -59.93,196.65 29.32,238.42 167.07,83.53 380.32,70.82 519.89,207.8 153.84,155.65 78.87,448.81 -122.97,525.07 -176.67,67.98 -408.34,52.93 -545.83,-88.98 -69.53,-71.6 -93.14,-171.48 -106.88,-266.95 44.1,-5.45 88.72,-10.37 133.08,-14.79 19.2,73.68 36.32,158.26 104.03,204.43 117.52,84.58 292.38,93.4 413.27,10.9 90.28,-62.78 98.58,-213.25 3.89,-276.03 -159.55,-98.07 -369.69,-82.24 -516.78,-205.2 -145.28,-124.53 -112.07,-383.96 51.62,-477.09z"/>
  <path class="fil0" d="M8340.43 2203.75c51.37,-0.26 102.99,0 154.88,-0.26 146.31,390.18 292.89,780.1 439.47,1170.01 -54.48,-0.25 -108.96,-0.25 -163.18,-0.51 -40.21,-119.6 -81.2,-238.94 -125.04,-356.98 -150.47,1.3 -300.94,0 -451.41,1.04 -37.87,119.59 -77.04,238.67 -117.78,357.49 -49.03,-1.04 -97.8,-1.55 -146.57,-1.82 135.16,-390.18 273.69,-779.05 409.63,-1168.97zm-104.55 690.59l0 0c122.98,0 246.2,2.34 369.43,-4.15 -66.93,-187.31 -137.24,-373.57 -188.34,-565.81 -45.41,194.31 -117,381.1 -181.09,569.96z"/>
  <path class="fil0" d="M9042.96 2204.27c163.7,1.55 328.18,-5.97 491.88,3.37 127.63,8.04 239.44,106.62 260.72,233.22 30.35,120.64 -34.76,242.57 -133.86,309.76 177.44,59.92 240.22,280.96 159.02,439.99 -43.32,111.81 -162.14,169.92 -276.29,177.44 -166.81,11.42 -334.14,2.08 -501.21,5.2 0.26,-389.66 0.78,-779.33 -0.26,-1168.98zm141.13 134.38l0 0c-0.26,119.34 0,238.93 0,358.53 124.78,-2.08 252.94,12.97 375.39,-18.42 146.32,-40.99 136.98,-295.23 -10.89,-326.1 -120.12,-23.35 -243.09,-11.94 -364.5,-14.01zm0 492.13l0 0c0,134.64 -0.26,269.55 0,404.45 134.64,-6.23 273.18,16.34 405.22,-16.08 160.59,-49.3 159.29,-323.51 -4.14,-368.13 -130.76,-34.25 -267.48,-16.35 -401.08,-20.24z"/>
  <path class="fil0" d="M10360.85 2206.08c179.52,-60.96 393.81,-13.23 522.49,128.16 111.55,122.19 155.39,292.64 154.35,455.04 0.53,162.66 -44.62,333.62 -157.73,454.51 -163.69,173.56 -458.14,198.98 -648.05,54.22 -171.47,-126.6 -234.78,-354.38 -219.73,-559.33 2.85,-223.1 125.3,-462.03 348.67,-532.6zm71.6 119.6l0 0c-134.9,32.94 -235.82,152.8 -259.17,287.7 -33.2,181.08 -34.24,396.14 100.15,539.09 116.47,131.27 336.98,144.24 469.29,29.83 106.89,-88.2 145.29,-231.66 149.96,-365.01 2.85,-134.38 -20.24,-279.14 -108.44,-385.5 -83.54,-100.15 -227,-141.4 -351.79,-106.11z"/>
  <path class="fil0" d="M11221.63 2204.52c168.11,-1.29 336.22,-0.77 504.32,-1.03 93.92,1.03 200.28,10.64 269.55,81.72 114.66,124.26 121.67,342.44 -2.34,462.81 -52.66,52.41 -126.86,70.05 -194.83,92.1 175.9,135.42 256.06,350.23 370.46,533.38 -58.63,-0.25 -117,0 -175.37,0 -74.45,-124 -143.2,-251.64 -222.33,-372.79 -38.91,-56.56 -82.24,-118.56 -150.72,-140.87 -85.09,-11.16 -171.49,-4.15 -256.84,-5.45 -1.3,173.3 2.86,346.59 -3.37,519.89 -46.18,-0.78 -92.36,-1.29 -138.53,-1.81 0.51,-389.4 1.03,-778.8 0,-1167.95zm142.42 128.17l0 0c-0.77,128.41 -1.29,257.09 0.26,385.76 128.94,-3.89 258.13,4.93 386.81,-5.97 78.6,-3.37 158.25,-52.66 178.23,-132.04 36.32,-101.18 -28.8,-224.93 -137.76,-240.5 -141.91,-15.56 -285.11,-2.33 -427.54,-7.25z"/>
  <path class="fil0" d="M12310.19 2204.27c259.17,-0.78 518.33,-0.78 777.5,0 -0.25,44.62 -0.52,89.24 -0.25,134.12 -212.22,0.26 -424.69,0 -636.9,0 0,120.63 -1.03,241.52 2.34,362.16 198.72,-2.33 397.44,-0.52 596.42,-1.3 -1.04,45.66 -1.82,91.58 -2.34,137.24 -198.98,-1.82 -397.69,-0.52 -596.42,-0.78 0,133.09 0,266.44 0,399.78 220.52,-0.52 441.29,0.78 662.06,-0.78 0.26,46.18 0.52,92.35 1.04,138.54 -267.73,0 -535.46,-0.26 -802.93,0 0.26,-389.66 0.78,-779.33 -0.52,-1168.98z"/>
  <path class="fil0" d="M13471.13 2227.61c173.29,-81.2 415.86,-64.33 542.46,91.58 46.44,59.16 60.97,135.16 77.31,206.77 -45.92,6.74 -91.84,12.96 -137.24,18.94 -18.42,-64.6 -32.95,-138.8 -91.84,-180.05 -85.35,-57.59 -197.68,-53.96 -293.67,-31.39 -89.76,22.31 -153.58,124.79 -118.56,214.03 30.62,83.79 130.24,99.62 205.21,123.74 143.72,42.03 316.24,62 410.15,193.28 118.3,169.4 27.25,429.61 -167.07,495.24 -177.18,61.49 -406.52,43.33 -538.82,-101.95 -64.86,-71.08 -86.92,-167.33 -98.33,-259.95 43.59,-5.19 87.43,-10.37 131.53,-15.04 18.94,70.82 33.73,151.24 95.73,198.46 115.7,90.28 292.38,100.4 416.38,21.27 97.55,-61.74 104.81,-225.96 1.04,-285.37 -161.89,-94.43 -374.88,-77.83 -518.08,-208.84 -142.43,-133.86 -93.13,-401.07 83.8,-480.72z"/>
  <path class="fil0" d="M2572.33 3593.25c4.67,-67.71 6.49,-190.68 99.36,-188.87 596.42,-1.03 1193.36,-3.89 1789.52,1.31 62.27,-8.05 79.65,59.92 110.26,99.35 131.01,15.57 245.68,105.59 293.42,228.04 40.21,94.17 15.3,199.76 -21.54,290.56 -102.74,235.82 -362.16,382.91 -615.1,381.36 -99.1,-22.58 -112.33,131.01 -206.25,124 -317.01,3.89 -634.29,-6.75 -951.32,-14.27 -83.53,-58.37 -126.59,-165.77 -203.9,-235.3 -186.01,-174.85 -319.1,-424.94 -294.45,-686.18zm132.31 -44.11l0 0c-1.3,96.25 0,195.09 32.94,286.93 71.34,225.18 263.58,376.95 405.49,556.47 284.33,2.07 568.66,1.3 852.73,0.26 125.31,-182.63 321.95,-317.54 394.85,-533.64 38.14,-96.77 34.76,-202.61 31.91,-304.57 -159.81,-10.63 -319.88,-12.45 -479.94,-11.67 -412.75,3.63 -825.5,-8.04 -1237.98,6.22zm1865.01 91.32l0 0c-1.03,119.86 -34.24,237.38 -82.49,346.6 -46.96,106.62 -131.53,189.12 -196.91,283.55 186.79,-39.95 384.73,-146.84 444.66,-340.88 46.18,-122.97 -38.4,-263.84 -165.26,-289.27z"/>
  <path class="fil0" d="M10882.04 3544.22c25.68,0 77.05,0 102.73,-0.26 -0.77,285.37 0,570.74 -0.52,856.1 -23.34,-0.78 -69.53,-2.07 -92.61,-2.59 0.51,-17.9 1.82,-53.18 2.59,-70.82 -42.54,41.76 -90.54,91.58 -155.92,86.13 -141.38,15.04 -251.9,-117.78 -264.87,-249.05 -20.75,-140.87 13.23,-327.92 163.7,-382.92 85.61,-38.13 174.34,1.82 245.93,50.07 -1.29,-95.46 -1.03,-191.2 -1.03,-286.66zm-212.47 322.21l0 0c-111.29,62.26 -107.93,214.54 -86.65,323.76 15.57,98.58 133.6,179 224.92,117.26 100.66,-70.3 96.51,-214.55 72.64,-321.95 -16.34,-91.31 -122.19,-167.59 -210.91,-119.07z"/>
  <path class="fil0" d="M11338.88 3543.7c33.99,0.26 68.24,0.77 102.48,1.3 -1.29,39.43 -2.6,79.12 -3.63,118.81 -33.2,-0.25 -66.41,-0.52 -99.1,-0.52 0,-39.95 0,-79.9 0.25,-119.59z"/>
  <path class="fil0" d="M8006.81 3779.78c35.54,0 71.34,0 107.14,0 55.26,164.47 112.85,327.91 167.34,492.65 52.4,-166.29 112.84,-330 169.66,-494.73 34.24,1.56 68.49,3.11 102.73,4.93 -77.83,204.17 -148.65,410.67 -225.18,615.36 -33.47,-0.52 -66.94,-0.78 -100.4,-1.04 -71.08,-206.76 -148.39,-411.19 -221.29,-617.17z"/>
  <path class="fil0" d="M8844.76 3904.04c75.75,-154.1 309.76,-186.27 425.46,-60.45 71.34,71.86 81.98,177.71 84.05,273.7 -152.02,1.3 -304.3,-4.15 -456.07,4.41 21.02,82.76 54.22,187.82 153.06,202.61 94.69,28.8 166.82,-49.03 205.21,-125.04 24.64,4.67 73.68,14.01 98.32,18.68 -30.61,64.33 -63.3,134.9 -131.53,167.07 -124.78,58.63 -301.97,32.43 -374.35,-95.47 -62.78,-117 -59.93,-266.43 -4.15,-385.51zm60.18 125.82l0 0c116.49,4.15 233.23,4.15 349.97,0 -18.93,-77.83 -58.11,-167.59 -149.17,-176.41 -109.22,-19.97 -182.63,80.95 -200.8,176.41z"/>
  <path class="fil0" d="M9672.07 3780.03c22.57,0 67.97,-0.51 90.8,-0.77 -1.56,18.94 -4.67,56.81 -6.23,75.75 52.67,-40.47 107.15,-88.72 177.97,-88.21 95.21,-10.12 204.69,46.96 215.32,150.21 15.06,158.77 1.56,319.1 7.01,478.65 -34.25,1.29 -68.23,2.85 -101.95,4.66 -4.16,-152.28 8.81,-305.6 -6.75,-457.36 -29.32,-127.12 -238.15,-102.74 -263.84,15.56 -29.31,143.72 -10.12,291.86 -13.75,437.4 -32.94,1.03 -65.89,2.33 -98.58,3.89 0.26,-206.51 0.52,-413.27 0,-619.78z"/>
  <path class="fil0" d="M11338.63 3780.03c33.46,-0.25 66.93,-0.25 100.4,-0.51 3.11,206.5 0.26,413 1.82,619.51 -33.99,-0.26 -67.98,0 -101.7,0.25 -0.78,-206.5 0,-412.74 -0.52,-619.25z"/>
  <path class="fil0" d="M11790.03 3779.78c21.79,-0.26 65.64,-0.78 87.68,-1.04 0.27,19.2 1.05,57.59 1.56,76.79 93.14,-116.75 318.84,-128.68 378.77,25.42 32.42,170.45 8.04,346.34 15.83,519.11 -33.74,-1.29 -67.2,-2.59 -100.41,-3.63 -4.67,-154.1 12.98,-310.27 -10.63,-462.81 -40.73,-122.19 -245.94,-85.87 -263.58,35.28 -20.76,142.17 -5.97,286.93 -9.6,430.38 -24.9,0 -74.97,-0.25 -99.88,-0.25 0.52,-206.51 0.26,-412.75 0.26,-619.25z"/>
  <path class="fil0" d="M12668.72 3838.92c91.84,-104.03 260.21,-89.76 349.19,10.38 -0.78,-17.38 -2.6,-51.88 -3.64,-69.27 24.13,0 72.39,-0.51 96.25,-0.77 -0.26,188.6 2.34,377.47 -0.77,566.07 -6.23,79.12 -5.72,169.92 -64.6,231.14 -88.46,89.25 -236.6,95.99 -346.6,46.19 -69.01,-28.8 -88.46,-104.82 -100.39,-170.97 32.16,4.93 64.34,10.12 96.76,15.31 31.39,124.26 216.36,133.6 283.56,37.61 30.35,-54.73 27.23,-120.37 39.17,-180.3 -87.69,84.58 -240.23,109.74 -333.11,20.24 -131.79,-130.24 -131.26,-365.02 -15.82,-505.63zm127.38 24.91l0 0c-121.68,57.85 -119.86,220.25 -92.61,332.58 21.53,109.48 169.14,159.03 249.04,79.39 73.42,-72.38 64.6,-186.53 53.44,-280.44 -14.01,-92.88 -117.26,-176.41 -209.87,-131.53z"/>
  <path class="fil1" d="M824.3 785.2c154.62,-381.09 568.41,-600.83 963.26,-633.26 968.95,-6.75 1938.43,3.11 2907.4,-5.19 316.5,1.56 646.75,-28.53 948.2,88.98 293.16,109.49 545.83,352.05 625.74,659.47 17.64,132.31 18.42,267.21 5.71,400.04 -1521.28,-2.08 -3042.57,-1.3 -4564.11,0.25 -310.79,-4.67 -622.36,7.27 -932.9,-9.34 5.19,-166.81 -25.16,-343.99 46.7,-500.95z"/>
  <path class="fil1" d="M772.68 4805.55c1835.44,-4.67 3670.89,2.33 5506.34,-4.67 3.89,67.19 -3.63,142.43 -65.12,182.89 -233.48,175.64 -534.94,207.03 -815.9,241.79 -1116.31,8.82 -2232.88,-4.41 -3349.46,-6.49 -225.71,-6.48 -454.26,13.23 -677.11,-33.46 -191.2,-39.43 -388.62,-92.36 -543.76,-216.88 -53.44,-36.84 -49.29,-106.11 -54.99,-163.18z"/>
  <path class="fil2" d="M9284.75 930.74c118.3,-13.75 236.59,-35.54 348.93,-76.53 39.17,88.98 93.13,177.45 189.12,212.73 -90.02,43.84 -150.99,124.26 -185.49,216.62 -170.96,-58.11 -351.53,-76.79 -530.01,-94.95 -690.33,-64.86 -1384.3,-83.54 -2076.72,-100.66 -12.19,-6.74 -36.31,-20.23 -48.5,-27.23 767.38,-39.44 1538.4,-37.88 2302.67,-129.98z"/>
  <path class="fil2" d="M11420.87 1069.79c97.02,-35.8 150.98,-125.3 188.34,-216.1 170.18,66.41 354.64,77.05 534.16,99.1 636.89,60.71 1276.9,77.31 1916.13,97.28 56.29,1.56 112.84,5.45 169.15,13.23 -18.95,12.98 -39.44,21.54 -61.49,25.43 -634.82,13.23 -1269.64,35.28 -1902.63,86.39 -221.3,22.57 -446.48,36.58 -658.69,108.44 -33.99,-91.31 -89.51,-178.23 -184.97,-213.77z"/>
  <path class="fil2" d="M296.88 2521.56c583.46,-13.23 1167.95,-0.53 1751.91,-6.23 83.02,0.78 197.43,-2.86 237.12,87.43 26.47,83.79 26.98,182.89 -10.63,263.57 -29.84,64.86 -113.11,58.89 -173.04,63.05 -589.16,-1.05 -1178.32,-0.78 -1767.22,-0.27 -66.93,-1.29 -157.21,-5.45 -184.71,-79.64 -27.76,-78.86 -25.16,-169.14 -1.81,-248.53 20.23,-62.26 92.87,-71.6 148.38,-79.38z"/>
  <path class="fil2" d="M2704.64 3549.14c412.48,-14.26 825.23,-2.59 1237.98,-6.22 160.06,-0.78 320.13,1.04 479.94,11.67 2.85,101.96 6.23,207.8 -31.91,304.57 -72.9,216.1 -269.54,351.01 -394.85,533.64 -284.07,1.04 -568.4,1.81 -852.73,-0.26 -141.91,-179.52 -334.15,-331.29 -405.49,-556.47 -32.94,-91.84 -34.24,-190.68 -32.94,-286.93zm679.18 158.77l0 0c-109.48,161.11 -83.54,390.44 46.95,532.35 34.25,-48.26 74.46,-96.25 85.87,-155.92 17.9,-101.43 -16.6,-203.91 -0.26,-305.6 11.93,-59.15 41,-112.85 64.34,-167.85 -76.27,3.63 -155.65,27.24 -196.9,97.02zm230.89 -70.3l0 0c-58.38,98.06 -72.39,211.69 -52.15,322.99 19.97,109.99 -30.35,212.99 -86.13,303.79 77.05,11.41 162.15,-3.64 208.58,-72.39 119.59,-161.36 111.81,-441.54 -70.3,-554.39z"/>
  <path class="fil2" d="M846.61 6059.36c-15.57,-154.1 142.69,-289.26 292.63,-252.94 99.88,14.79 162.67,102.99 194.58,191.98 -39.43,15.04 -78.61,30.35 -118.05,45.66 -33.72,-43.08 -61.22,-115.71 -128.93,-104.04 -104.81,-6.74 -141.13,149.17 -53.44,198.72 119.85,75.5 277.58,112.59 345.04,250.87 114.93,195.61 -38.14,472.41 -265.14,478.64 -181.08,19.97 -324.28,-134.13 -355.41,-301.71 43.32,-18.17 86.65,-36.06 129.97,-53.96 24.65,78.34 44.62,177.97 133.87,207.28 125.56,53.44 274.73,-59.15 259.16,-193.79 -11.93,-123.23 -134.64,-181.6 -235.04,-223.63 -101.18,-40.47 -198.46,-125.82 -199.24,-243.08z"/>
  <path class="fil2" d="M9239.61 5811.09c186.26,0.52 372.54,0.25 558.8,0 0.26,46.18 0.78,92.35 1.3,138.79 -140.87,1.04 -281.74,0.52 -422.35,0.78 -1.55,105.59 -1.55,211.43 0,317.28 140.09,-3.89 280.18,-3.37 420.53,-3.11 0.52,45.91 1.04,91.83 1.56,138.01 -141.65,0.26 -283.29,-2.08 -424.69,2.59 1.82,104.81 1.56,209.36 2.09,314.17 140.6,1.04 281.21,0.78 421.82,0.26 0,45.4 0.26,91.06 0.52,136.98 -186.53,0.51 -373.32,0.51 -559.85,0.26 -0.77,-348.67 -1.29,-697.35 0.27,-1046.01z"/>
  <path class="fil2" d="M3252.54 5917.45c60.97,-25.16 141.65,18.94 135.42,89.51 3.9,70.04 -86.12,119.59 -144.23,80.67 -66.42,-31.9 -59.16,-143.72 8.81,-170.18z"/>
  <path class="fil2" d="M4342.65 5916.93c61.75,-25.42 140.09,21.02 133.35,91.32 2.85,69.01 -84.57,118.04 -142.16,79.91 -69.01,-30.62 -60.71,-145.8 8.81,-171.23z"/>
  <path class="fil2" d="M11657.72 5917.45c62.27,-25.42 139.57,18.16 136.46,89.24 2.6,70.83 -88.46,121.16 -146.05,79.91 -65.12,-33.98 -56.56,-141.13 9.59,-169.15z"/>
  <path class="fil2" d="M5313.43 5935.09c45.66,-0.25 91.32,-0.52 136.98,-0.25 0,83.53 0,167.33 0,251.12 39.69,-0.26 79.64,-0.26 119.33,-0.26 0.27,45.14 0.27,90.54 0.27,135.94 -39.96,-0.26 -79.91,-0.26 -119.86,-0.26 0.26,178.49 0.78,356.97 -0.26,535.72 -45.14,-0.26 -90.28,-0.26 -135.42,0 -1.82,-178.23 -0.78,-356.46 -0.78,-534.68 -39.95,-1.04 -79.9,-1.82 -119.59,-2.6 -0.52,-43.32 -0.78,-86.65 -1.04,-129.71 40.21,-2.07 80.68,-3.89 120.89,-5.45 -0.52,-83.27 -0.52,-166.29 -0.52,-249.57z"/>
  <path class="fil2" d="M6365.67 6151.46c202.61,-78.09 448.03,58.62 487.72,271.61 51.63,205.47 -106.89,431.17 -318.32,449.85 -195.61,29.31 -391.21,-125.82 -412.49,-321.17 -25.42,-168.62 81.98,-344.78 243.09,-400.29zm52.66 131.01l0 0c-155.66,45.39 -211.95,264.1 -96.25,377.46 107.66,128.94 342.45,77.83 388.1,-83.79 65.64,-169.93 -120.63,-361.12 -291.85,-293.67z"/>
  <path class="fil2" d="M10032.42 6259.38c114.4,-141.39 337.51,-170.19 481.75,-57.33 53.7,-8.56 107.66,-13.5 162.14,-16.35 -2.85,298.86 -0.26,597.46 -1.29,896.32 -45.15,0.26 -90.03,0.26 -134.91,0.78 -0.78,-98.59 -0.78,-196.91 0,-295.49 -124.78,103.25 -313.38,120.12 -444.13,18.42 -174.34,-118.56 -205.73,-390.96 -63.56,-546.35zm200.53 25.42l0 0c-162.66,53.18 -205.98,293.67 -66.93,396.66 129.97,118.04 371.76,23.1 374.61,-156.17 26.72,-162.66 -156.43,-304.05 -307.68,-240.49z"/>
  <path class="fil2" d="M12134.3 6206.45c135.68,-114.66 350.75,-90.54 466.45,40.99 153.32,152.81 126.34,436.88 -53.18,558.29 -130.24,101.7 -318.32,84.83 -442.85,-17.64 0.78,98.06 0.52,196.38 0.27,294.71 -45.41,-0.27 -90.54,-0.27 -135.42,-0.27 -1.04,-298.85 0.51,-597.97 -1.04,-897.09 55.51,2.07 111.29,7.27 165.77,21.01zm121.93 76.53l0 0c-161.1,47.74 -208.58,282.52 -81.2,389.92 112.33,114.15 333.62,57.86 375.13,-98.06 67.71,-170.7 -123.74,-359.82 -293.93,-291.86z"/>
  <path class="fil2" d="M13105.59 6140.3c212.48,-57.85 446.48,112.85 454.26,332.84 24.13,203.65 -151.76,402.12 -356.71,401.85 -203.91,13.76 -394.33,-171.99 -380.84,-376.68 -5.97,-166.55 121.93,-322.99 283.29,-358.01zm6.75 143.98l0 0c-149.95,49.55 -206.24,261.76 -91.84,374.62 108.18,129.44 345.56,79.64 390.18,-84.32 66.67,-172.77 -127.12,-361.9 -298.34,-290.3z"/>
  <path class="fil2" d="M2451.18 6199.96c43.32,-24.64 87.16,-59.66 140.34,-51.1 55.78,-2.85 87.43,47.48 119.08,84.57 51.37,-76.26 156.18,-108.69 240.23,-69.01 56.56,27.51 70.57,95.99 71.34,153.59 1.56,179.52 -0.77,359.31 0.27,539.09 -45.15,-0.26 -90.29,-0.26 -135.43,-0.26 -5.7,-170.18 9.86,-341.41 -7.78,-510.81 -4.15,-73.68 -129.2,-82.24 -141.39,-8.05 -28.8,170.96 -5.45,346.34 -14.26,519.12 -44.11,-0.26 -88.47,-0.26 -132.57,-0.26 -5.71,-170.71 8.3,-342.45 -6.23,-512.63 -6.74,-76.27 -139.31,-77.05 -143.98,-0.26 -22.06,169.41 -4.41,341.4 -9.86,512.11 -44.88,0.78 -89.76,1.56 -134.64,2.85 -4.15,-225.7 -1.82,-451.4 -1.56,-677.1 52.14,4.93 104.29,10.9 156.44,18.15z"/>
  <path class="fil2" d="M3701.36 6235.25c45.13,-43.07 94.68,-93.4 162.91,-86.65 126.61,-10.11 229.85,102.47 239.46,222.85 12.19,161.88 3.37,324.55 3.62,486.94 -44.88,-0.77 -89.49,-1.29 -134.37,-1.82 -4.42,-153.83 8.29,-308.45 -5.97,-461.77 -18.43,-126.6 -223.37,-148.91 -262.8,-24.91 -10.38,161.89 -0.26,324.55 -3.63,486.95 -45.66,0 -91.32,-0.27 -136.98,-0.27 0.25,-222.32 0.78,-444.39 0,-666.46 44.36,-2.07 88.99,-4.15 133.6,-5.71 1.04,12.71 3.12,38.14 4.16,50.85z"/>
  <path class="fil2" d="M4680.17 6393.76c-33.46,-118.3 72.9,-244.12 194.83,-228.3 79.38,1.56 130.49,68.49 161.88,133.87 -74.71,27.5 -151.76,23.35 -228.03,7.27 -4.67,111.55 131.27,128.15 191.46,198.98 116.22,107.13 55.51,325.57 -98.59,359.82 -119.59,37.1 -244.64,-49.29 -266.95,-168.89 41.25,-7.78 82.5,-15.57 124.01,-22.83 36.58,90.02 187.56,67.97 163.95,-37.88 -53.44,-104.02 -217.66,-115.7 -242.56,-242.04z"/>
  <path class="fil2" d="M5864.71 6262.23c48.26,-49.55 108.7,-82.5 175.38,-100.39 1.29,46.69 2.07,93.65 2.07,140.6 -76.79,22.05 -154.1,67.45 -172.78,151.25 -20.24,133.09 -5.18,269.02 -10.12,403.41 -45.13,0 -90.01,0 -134.64,0.25 -1.29,-224.14 0,-448.02 -1.03,-671.91 45.13,0.52 90.54,1.3 135.94,2.33 1.29,18.68 3.89,55.78 5.18,74.46z"/>
  <path class="fil2" d="M7041.47 6394.54c-38.13,-126.6 90.54,-260.72 218.44,-225.18 69.52,9.85 107.66,72.9 139.31,128.41 -62.26,21.53 -127.37,31.91 -191.97,13.75 -59.93,-0.26 -36.06,71.86 2.59,85.62 77.83,57.84 185.75,101.17 206.51,207.54 39.17,137.49 -87.95,286.92 -230.37,267.46 -96.52,-5.45 -167.86,-84.57 -189.91,-174.07 38.4,-9.08 77.05,-17.9 115.71,-26.47 34.5,29.58 71.34,78.62 123.49,56.04 47.99,-9.86 59.92,-74.45 40.21,-112.59 -70.05,-81.46 -206.5,-104.55 -234.01,-220.51z"/>
  <path class="fil2" d="M13741.19 6395.32c-37.35,-125.57 88.46,-260.73 216.36,-226.48 68.75,8.56 106.11,72.64 142.43,124 -39.95,12.45 -79.91,24.39 -119.34,37.1 -20.49,-6.75 -61.74,-19.71 -82.24,-26.46 -28.27,21.27 -29.83,73.68 4.93,89.76 73.16,56.56 174.86,92.62 206.77,188.34 54.73,134.39 -61.23,299.9 -207.03,291.6 -104.8,2.08 -184.19,-81.46 -211.17,-176.41 37.36,-8.04 74.97,-14.01 113.11,-17.9 34.25,16.08 62.52,43.84 99.88,53.96 62.26,7 106.36,-73.42 67.19,-121.67 -71.34,-77.57 -201.83,-103 -230.89,-215.84z"/>
  <path class="fil2" d="M1542.39 6184.92c45.41,1.3 90.8,3.12 136.2,4.93 4.42,145.54 -9.86,292.11 7,436.87 29.58,135.95 251.4,132.83 276.56,-4.15 13.49,-144.76 2.07,-290.55 5.44,-435.57 45.4,-0.52 90.81,-1.04 136.46,-1.3 -3.37,148.39 6.23,296.78 -3.89,444.92 -9.6,139.83 -146.58,248.01 -284.59,236.07 -133.34,3.38 -260.2,-102.99 -270.07,-237.89 -8.81,-147.87 -0.51,-296 -3.11,-443.88z"/>
  <path class="fil2" d="M3225.05 6188.55c45.39,0 91.05,0.26 136.46,0.78 -1.56,222.33 -0.53,444.66 -0.53,666.99 -45.39,0.25 -90.54,0.25 -135.67,0.52 -0.53,-222.85 0.25,-445.7 -0.26,-668.29z"/>
  <path class="fil2" d="M4313.34 6189.33c45.4,-1.04 91.06,-1.04 136.72,0.78 -2.59,222.07 -1.04,443.88 -1.04,665.95 -45.14,0.26 -90.02,0.78 -134.9,1.04 -0.52,-222.59 0.78,-445.18 -0.78,-667.77z"/>
  <path class="fil2" d="M7995.39 6187.26c50.33,-0.78 100.93,-1.04 151.51,-1.56 56.82,118.81 105.32,241.78 173.04,355.15 55.26,-118.03 109.22,-236.34 163.44,-354.63 50.33,0.26 100.91,0.52 151.5,1.29 -141.13,299.64 -283.29,598.76 -428.57,896.33 -46.43,-0.78 -92.62,-1.31 -138.79,-1.56 50.33,-127.64 122.7,-245.68 169.4,-374.36 -69.01,-178.48 -165.25,-345.29 -241.53,-520.66z"/>
  <path class="fil2" d="M10865.95 6185.7c45.14,0.26 90.54,0.52 135.95,1.04 4.4,146.84 -8.83,294.45 7.25,440.5 30.62,131.53 246.2,134.65 275.78,0.26 17.64,-145.27 3.11,-292.63 7.52,-438.95 45.4,0 91.06,0.26 136.72,0.78 -3.11,138.02 1.81,276.03 -1.82,414.04 -1.55,95.21 -55.78,190.69 -142.69,232.97 -124.26,61.75 -298.33,31.39 -374.08,-91.06 -39.7,-56.55 -45.14,-127.38 -44.88,-194.04 0,-121.94 0.77,-243.61 0.25,-365.54z"/>
  <path class="fil2" d="M11630.22 6188.81c45.4,-0.26 91.32,0 136.98,1.04 -2.85,222.33 -0.78,444.4 -1.29,666.47 -45.15,0.25 -90.03,0.52 -134.91,0.78 -0.78,-222.85 0.27,-445.7 -0.78,-668.29z"/>
 </g>
</svg>
