<?xml version="1.0" encoding="UTF-8"?>
<!DOCTYPE svg PUBLIC "-//W3C//DTD SVG 1.1//EN" "http://www.w3.org/Graphics/SVG/1.1/DTD/svg11.dtd">
<!-- Creator: CorelDRAW 2019 (64-Bit) -->
<svg xmlns="http://www.w3.org/2000/svg" xml:space="preserve" width="1354.67mm" height="338.667mm" version="1.1" style="shape-rendering:geometricPrecision; text-rendering:geometricPrecision; image-rendering:optimizeQuality; fill-rule:evenodd; clip-rule:evenodd"
viewBox="0 0 300953.33 75238.37"
 xmlns:xlink="http://www.w3.org/1999/xlink">
 <defs>
  <style type="text/css">
   <![CDATA[
    .fil0 {fill:#64B161}
    .fil1 {fill:#E5E5E5}
    .fil2 {fill:white}
    .fil3 {fill:white;fill-rule:nonzero}
   ]]>
  </style>
 </defs>
 <g id="Capa_x0020_1">
  <metadata id="CorelCorpID_0Corel-Layer"/>
  <rect class="fil0" x="-0.02" y="0.01" width="300953.35" height="75238.35" rx="39161.49" ry="37619.17"/>
  <g id="_1614544260688">
   <path class="fil1" d="M46432.18 57682.72c-225.32,0 -444.52,-89.09 -607.08,-253.49 -214.3,-216.76 -296.96,-531.47 -216.45,-825.68l2608.67 -9526.02c-1624.1,-2936.85 -2480.4,-6259.15 -2479.18,-9631.63 4.6,-10967.66 8929.96,-19890.27 19896.71,-19890.27 5319.25,2.13 10317.4,2074.13 14074.11,5833.6 3756.09,3759.78 5823.8,8757.61 5822.27,14072.6 -4.89,10967.95 -8930.27,19891.18 -19896.38,19891.18 0,0 -8.26,0 -8.58,0 -3203.2,-1.22 -6378.85,-781.89 -9206.42,-2260.57l-9771.24 2562.44c-71.65,18.68 -144.49,27.86 -216.45,27.86l0 -0.02zm0 0z"/>
   <path class="fil2" d="M46432.18 56828.89l2701.43 -9864.92c-1666.36,-2887.26 -2542.85,-6162.4 -2541.63,-9517.73 4.29,-10496.82 8546.36,-19036.75 19042.86,-19036.75 5093.63,2.13 9874.7,1984.74 13470.08,5583.18 3595.07,3598.44 5574.29,8381.65 5572.45,13468.88 -4.6,10496.48 -8547.89,19037.64 -19042.53,19037.64 -0.62,0 0.31,0 0,0l-8.24 -0.02c-3186.98,-1.22 -6318.22,-800.58 -9099.56,-2317.51l-10094.86 2647.24zm10562.33 -6093.53l578.31 342.57c2429.57,1441.95 5215.19,2204.56 8055.92,2206.08l6.13 0c8723.29,0 15823.42,-7098.89 15827.09,-15823.73 1.53,-4228.18 -1643.08,-8204.1 -4631.38,-11194.82 -2988.59,-2990.75 -6962.06,-4638.71 -11189.91,-4640.55 -8730.35,0 -15830.18,7097.98 -15833.53,15822.51 -1.22,2989.79 835.17,5901.25 2419.77,8420.81l376.56 598.81 -1599.31 5838.8 5990.36 -1570.47zm0 0z"/>
   <path class="fil0" d="M47094.37 56164.23l2608.05 -9523.89c-1609.11,-2787.16 -2454.98,-5949.32 -2454.07,-9188.02 3.98,-10133.43 8250.62,-18377.6 18383.11,-18377.6 4917.9,2.13 9533.66,1916.16 13003.81,5389.99 3471.08,3473.83 5381.44,8091.42 5379.59,13002.01 -4.29,10133.69 -8251.24,18378.82 -18382.49,18378.82 -0.91,0 0.31,0 0,0l-8.22 0c-3076.46,-1.22 -6099.64,-773.32 -8784.54,-2236.69l-9745.25 2555.38zm0 0z"/>
   <g>
    <path class="fil2" d="M46432.18 56828.89l2701.43 -9864.92c-1666.36,-2887.26 -2542.85,-6162.4 -2541.63,-9517.73 4.29,-10496.82 8546.36,-19036.75 19042.86,-19036.75 5093.63,2.13 9874.7,1984.74 13470.08,5583.18 3595.07,3598.44 5574.29,8381.65 5572.45,13468.88 -4.6,10496.48 -8547.89,19037.64 -19042.53,19037.64 -0.62,0 0.31,0 0,0l-8.24 -0.02c-3186.98,-1.22 -6318.22,-800.58 -9099.56,-2317.51l-10094.86 2647.24zm10562.33 -6093.53l578.31 342.57c2429.57,1441.95 5215.19,2204.56 8055.92,2206.08l6.13 0c8723.29,0 15823.42,-7098.89 15827.09,-15823.73 1.53,-4228.18 -1643.08,-8204.1 -4631.38,-11194.82 -2988.59,-2990.75 -6962.06,-4638.71 -11189.91,-4640.55 -8730.35,0 -15830.18,7097.98 -15833.53,15822.51 -1.22,2989.79 835.17,5901.25 2419.77,8420.81l376.56 598.81 -1599.31 5838.8 5990.36 -1570.47zm0 0z"/>
    <path class="fil2" d="M60875.52 29487.65c-356.35,-792.31 -731.69,-808.22 -1070.9,-821.99 -277.37,-11.93 -594.83,-11.33 -911.7,-11.33 -317.16,0 -832.72,119.39 -1268.67,595.46 -436.26,476.05 -1665.74,1627.17 -1665.74,3968.25 0,2341.39 1705.24,4603.52 1943.1,4921.3 237.87,317.45 3291.68,5275.18 8127.85,7182.47 4019.37,1585.23 4837.08,1269.89 5709.59,1190.6 872.51,-79.29 2815.02,-1151.1 3211.46,-2262.1 396.76,-1111 396.76,-2063.12 277.68,-2262.42 -119.1,-198.08 -436.26,-317.16 -912.01,-555.05 -475.76,-237.87 -2815.02,-1389.28 -3251.27,-1547.88 -436.26,-158.89 -753.43,-237.87 -1070.59,238.49 -317.47,475.76 -1228.57,1547.26 -1506.23,1864.44 -277.68,318.09 -555.36,357.88 -1031.09,119.7 -475.76,-238.49 -2008.29,-740.57 -3826.18,-2361.61 -1414.38,-1261 -2369.56,-2818.66 -2647.24,-3295.02 -277.37,-475.76 -4.6,-710.87 209.1,-970.8 384.83,-468.09 1030.49,-1309.68 1189.07,-1626.86 158.58,-317.78 79.29,-595.46 -39.5,-833.63 -119.1,-237.87 -1043.95,-2590.9 -1466.75,-3532l0.02 -0.02zm0 0z"/>
   </g>
  </g>
  <path class="fil3" d="M113205.04 51793.69c-623.52,0 -1251.67,-85.31 -1870.55,-249.38 -623.52,-164.07 -1214.46,-452.79 -1772.84,-866.23 -558.38,-406.86 -1079.52,-964.64 -1563.43,-1660.25 -479.29,-702.16 -898.06,-1581.52 -1251.7,-2651.15 -353.64,-1069.66 -632.82,-2342.75 -832.9,-3819.25 -200.1,-1469.95 -297.81,-3195.82 -297.81,-5171.07 0,-1896.49 111.66,-3556.74 339.68,-4987.32 228,-1424.03 530.45,-2657.73 912.01,-3694.57 381.54,-1043.4 828.24,-1896.49 1335.43,-2565.84 511.84,-675.92 1046.95,-1207.46 1609.97,-1607.75 563.04,-400.31 1135.37,-675.92 1717.01,-833.41 581.64,-164.07 1140.02,-242.8 1675.11,-242.8 912.01,0 1703.04,65.63 2373.1,190.3 674.7,131.25 1237.72,269.06 1693.73,426.55 525.81,177.17 972.51,380.61 1349.4,610.3l0 3300.82c-376.9,-39.37 -772.41,-78.76 -1200.49,-118.12 -362.94,-26.24 -781.74,-52.5 -1247.05,-85.31 -469.96,-32.81 -958.53,-52.5 -1465.73,-52.5 -465.32,0 -925.96,26.26 -1386.64,78.76 -456.01,52.5 -898.04,183.73 -1321.48,393.73 -423.44,209.99 -814.31,524.97 -1177.25,931.83 -362.94,413.42 -679.34,971.22 -949.22,1679.96 -265.22,708.71 -474.6,1601.2 -628.16,2664.28 -148.89,1056.53 -223.36,2349.28 -223.36,3858.62 0,1588.07 79.11,2946.47 232.67,4068.6 153.56,1128.71 367.59,2067.11 642.13,2828.35 269.86,754.66 590.95,1345.27 953.89,1784.95 362.94,433.1 758.43,761.21 1181.87,984.33 428.1,229.69 874.8,367.5 1340.09,426.55 460.67,59.07 925.99,85.31 1386.64,85.31 600.26,0 1149.32,-13.13 1637.9,-39.37 488.55,-26.26 907.35,-52.5 1256.34,-78.76 404.82,-39.37 777.07,-78.73 1102.78,-118.12l0 3327.08c-400.16,236.25 -874.78,433.12 -1419.21,603.74 -469.96,150.94 -1051.6,288.74 -1735.61,413.42 -688.68,124.68 -1484.34,183.75 -2396.36,183.75zm16485.99 118.12c-832.92,0 -1610,-85.31 -2331.22,-249.38 -716.58,-164.07 -1372.69,-459.36 -1963.61,-872.78 -590.95,-419.99 -1116.76,-971.22 -1572.76,-1666.83 -460.65,-689.03 -851.52,-1568.39 -1167.92,-2624.91 -316.42,-1056.53 -558.38,-2309.91 -721.24,-3753.62 -162.87,-1450.26 -246.62,-3136.75 -246.62,-5059.5 0,-2880.84 181.48,-5249.83 544.43,-7113.51 362.94,-1857.13 893.4,-3320.5 1582.05,-4390.16 693.32,-1069.66 1530.86,-1811.19 2521.99,-2231.18 991.12,-413.42 2112.52,-623.4 3354.91,-623.4 828.24,0 1600.67,91.86 2321.89,269.06 716.58,177.17 1372.69,479.04 1963.63,905.59 590.92,419.97 1112.09,990.9 1568.08,1699.62 451.36,708.74 837.57,1601.2 1149.32,2664.28 316.4,1063.1 553.73,2323.04 716.58,3773.31 162.87,1456.84 246.62,3136.77 246.62,5046.4 0,1909.62 -83.75,3589.56 -246.62,5039.82 -162.84,1443.71 -400.18,2697.09 -716.58,3753.62 -311.76,1063.1 -697.96,1935.88 -1149.32,2638.04 -455.98,695.61 -977.15,1253.38 -1568.08,1660.25 -590.95,413.42 -1247.05,702.16 -1963.63,872.78 -721.22,177.2 -1493.65,262.5 -2321.89,262.5zm4.64 -4252.37c888.73,0 1628.57,-144.36 2214.87,-439.66 586.3,-295.32 1051.62,-820.28 1400.59,-1568.39 344.33,-748.1 586.3,-1765.26 730.55,-3058.02 139.58,-1286.22 209.39,-2920.21 209.39,-4908.59 0,-1994.93 -69.8,-3642.05 -209.39,-4934.83 -144.25,-1292.77 -386.23,-2323.04 -730.55,-3084.28 -348.97,-761.21 -814.28,-1292.77 -1400.59,-1594.62 -586.3,-301.87 -1326.14,-452.81 -2214.87,-452.81 -893.4,0 -1633.23,150.94 -2228.85,452.81 -590.95,301.85 -1056.26,833.41 -1405.23,1594.62 -344.33,761.23 -586.3,1791.5 -730.55,3084.28 -139.58,1292.77 -209.39,2939.89 -209.39,4934.83 0,1988.38 69.8,3622.37 209.39,4908.59 144.25,1292.75 386.23,2309.91 730.55,3058.02 348.97,748.1 814.28,1273.07 1405.23,1568.39 595.61,295.3 1335.45,439.66 2228.85,439.66zm12009.68 -23781.68l5420.87 0 7086.7 23151.72 69.8 0c-13.97,-459.36 -27.93,-931.85 -41.88,-1404.34 0,-406.86 0,-853.1 0,-1325.56 0,-472.49 0,-931.85 0,-1364.95l0 -19056.86 3238.57 0 0 27443.44 -5304.57 0 -6002.51 -19306.21c-162.84,-538.12 -321.07,-1036.85 -465.29,-1502.76 -144.25,-459.36 -265.24,-859.67 -367.61,-1207.46 -125.63,-413.42 -241.95,-787.47 -339.66,-1135.26l-55.85 0 0 23151.7 -3238.57 0 0 -27443.44zm24252.01 4252.35l-5835 0 0 -4252.35 14964.42 0 0 4252.35 -5890.83 0 0 23191.09 -3238.59 0 0 -23191.09zm15792.68 -4252.35l4336.68 0 6365.47 27443.44 -3610.82 0 -1637.9 -7441.62 -6621.36 0 -1568.12 7441.62 -3573.58 0 6309.62 -27443.44zm4555.4 15867.59l-2401.02 -11615.24 -51.16 0 -2401 11615.24 4853.18 0zm15490.2 12048.34c-623.52,0 -1251.7,-85.31 -1870.55,-249.38 -623.52,-164.07 -1214.48,-452.79 -1772.84,-866.23 -558.38,-406.86 -1079.52,-964.64 -1563.45,-1660.25 -479.27,-702.16 -898.04,-1581.52 -1251.67,-2651.15 -353.66,-1069.66 -632.82,-2342.75 -832.9,-3819.25 -200.1,-1469.95 -297.81,-3195.82 -297.81,-5171.07 0,-1896.49 111.66,-3556.74 339.66,-4987.32 228,-1424.03 530.47,-2657.73 912.04,-3694.57 381.54,-1043.4 828.24,-1896.49 1335.43,-2565.84 511.84,-675.92 1046.95,-1207.46 1609.97,-1607.75 563.04,-400.31 1135.37,-675.92 1717.01,-833.41 581.64,-164.07 1139.99,-242.8 1675.11,-242.8 912.01,0 1703.04,65.63 2373.07,190.3 674.7,131.25 1237.74,269.06 1693.75,426.55 525.81,177.17 972.51,380.61 1349.4,610.3l0 3300.82c-376.9,-39.37 -772.43,-78.76 -1200.51,-118.12 -362.94,-26.24 -781.72,-52.5 -1247.03,-85.31 -469.96,-32.81 -958.56,-52.5 -1465.75,-52.5 -465.29,0 -925.94,26.26 -1386.61,78.76 -456.01,52.5 -898.04,183.73 -1321.48,393.73 -423.44,209.99 -814.31,524.97 -1177.25,931.83 -362.94,413.42 -679.34,971.22 -949.22,1679.96 -265.24,708.71 -474.62,1601.2 -628.18,2664.28 -148.89,1056.53 -223.34,2349.28 -223.34,3858.62 0,1588.07 79.09,2946.47 232.65,4068.6 153.56,1128.71 367.61,2067.11 642.13,2828.35 269.88,754.66 590.95,1345.27 953.89,1784.95 362.94,433.1 758.46,761.21 1181.89,984.33 428.08,229.69 874.78,367.5 1340.09,426.55 460.65,59.07 925.99,85.31 1386.64,85.31 600.23,0 1149.32,-13.13 1637.88,-39.37 488.58,-26.26 907.37,-52.5 1256.36,-78.76 404.8,-39.37 777.05,-78.73 1102.78,-118.12l0 3327.08c-400.18,236.25 -874.78,433.12 -1419.21,603.74 -469.96,150.94 -1051.6,288.74 -1735.61,413.42 -688.68,124.68 -1484.34,183.75 -2396.36,183.75zm12921.7 -23663.58l-5835 0 0 -4252.35 14964.4 0 0 4252.35 -5890.83 0 0 23191.09 -3238.57 0 0 -23191.09zm15792.65 -4252.35l4336.71 0 6365.45 27443.44 -3610.8 0 -1637.9 -7441.62 -6621.38 0 -1568.1 7441.62 -3573.58 0 6309.6 -27443.44zm4555.42 15867.59l-2401.02 -11615.24 -51.19 0 -2401 11615.24 4853.21 0zm8822.28 -15867.59l7235.59 0c516.5,0 1023.69,45.94 1521.58,144.38 493.24,98.42 958.53,269.04 1400.59,511.86 442.03,242.8 842.21,570.91 1205.15,990.9 362.94,413.42 679.34,951.51 949.25,1601.18 265.22,656.24 474.6,1437.16 618.85,2349.3 144.25,912.15 218.69,1981.8 218.69,3208.95 0,820.28 -46.54,1555.26 -144.25,2204.92 -93.06,643.11 -223.34,1220.59 -381.56,1719.32 -158.2,498.73 -339.68,938.41 -544.4,1305.88 -204.74,374.05 -409.46,695.61 -618.87,964.67 -497.88,616.85 -1060.91,1043.4 -1689.06,1286.2l0 39.39 4104.04 11116.49 -3736.45 0 -3638.74 -10079.66 -3233.9 0 0 10079.66 -3266.49 0 0 -27443.44zm7207.69 13032.69c1707.68,0 2563.86,-1496.21 2563.86,-4488.6 0,-780.92 -60.49,-1443.71 -186.15,-1988.38 -120.97,-544.67 -297.78,-984.35 -530.43,-1319.01 -232.67,-334.68 -511.86,-577.48 -837.57,-721.84 -325.73,-150.94 -693.32,-223.12 -1093.5,-223.12l-3857.42 0 0 8740.95 3941.19 0z"/>
 </g>
</svg>
